<svg
    xmlns="http://www.w3.org/2000/svg"
    xmlns:xlink="http://www.w3.org/1999/xlink"
    viewBox="0 0 1128 552">
    <defs>
        <svg id="menu-encuestadores" xmlns="http://www.w3.org/2000/svg" width="16" height="16" viewBox="0 0 16 16" fill="none">
            <path fill-rule="evenodd" clip-rule="evenodd" d="M6.82019 2.15417C7.13275 1.84161 7.55667 1.66602 7.9987 1.66602C8.44073 1.66602 8.86465 1.84161 9.17721 2.15417C9.48977 2.46673 9.66536 2.89065 9.66536 3.33268C9.66536 3.77471 9.48977 4.19863 9.17721 4.51119C8.86465 4.82375 8.44073 4.99935 7.9987 4.99935C7.55667 4.99935 7.13275 4.82375 6.82019 4.51119C6.50763 4.19863 6.33203 3.77471 6.33203 3.33268C6.33203 2.89065 6.50763 2.46673 6.82019 2.15417ZM6.82019 6.82084C7.13275 6.50828 7.55667 6.33268 7.9987 6.33268C8.44073 6.33268 8.86465 6.50828 9.17721 6.82084C9.48977 7.1334 9.66536 7.55732 9.66536 7.99935C9.66536 8.44138 9.48977 8.8653 9.17721 9.17786C8.86465 9.49042 8.44073 9.66601 7.9987 9.66601C7.55667 9.66601 7.13275 9.49042 6.82019 9.17786C6.50763 8.8653 6.33203 8.44138 6.33203 7.99935C6.33203 7.55732 6.50763 7.1334 6.82019 6.82084ZM6.82019 11.4875C7.13275 11.1749 7.55667 10.9993 7.9987 10.9993C8.44072 10.9993 8.86465 11.1749 9.17721 11.4875C9.48977 11.8001 9.66536 12.224 9.66536 12.666C9.66536 13.108 9.48977 13.532 9.17721 13.8445C8.86465 14.1571 8.44072 14.3327 7.9987 14.3327C7.55667 14.3327 7.13275 14.1571 6.82019 13.8445C6.50763 13.532 6.33203 13.108 6.33203 12.666C6.33203 12.224 6.50763 11.8001 6.82019 11.4875Z" fill="#64748B"/>
        </svg>
        <svg id="expandir-detalles" width="20" height="20" viewBox="0 0 20 20" fill="none" xmlns="http://www.w3.org/2000/svg">
            <g clip-path="url(#clip0_1585_18572)">
                <path d="M13 11L10 14M10 14L7 11M10 14V6M10 19C8.8181 19 7.64778 18.7672 6.55585 18.3149C5.46392 17.8626 4.47177 17.1997 3.63604 16.364C2.80031 15.5282 2.13738 14.5361 1.68508 13.4442C1.23279 12.3522 1 11.1819 1 10C1 8.8181 1.23279 7.64778 1.68508 6.55585C2.13738 5.46392 2.80031 4.47177 3.63604 3.63604C4.47177 2.80031 5.46392 2.13738 6.55585 1.68508C7.64778 1.23279 8.8181 1 10 1C12.3869 1 14.6761 1.94821 16.364 3.63604C18.0518 5.32387 19 7.61305 19 10C19 12.3869 18.0518 14.6761 16.364 16.364C14.6761 18.0518 12.3869 19 10 19Z" stroke="#64748B" stroke-width="2" stroke-linecap="round" stroke-linejoin="round"/>
            </g>
            <defs>
                <clipPath id="clip0_1585_18572">
                    <rect width="20" height="20" fill="white"/>
                </clipPath>
            </defs>
        </svg>
        <svg id="buscar" width="20" height="20" viewBox="0 0 20 20" fill="none" xmlns="http://www.w3.org/2000/svg">
            <path fill-rule="evenodd" clip-rule="evenodd" d="M7.2 2.40092C5.92696 2.40092 4.70606 2.90663 3.80589 3.80681C2.90571 4.70698 2.4 5.92788 2.4 7.20092C2.4 8.47396 2.90571 9.69486 3.80589 10.595C4.70606 11.4952 5.92696 12.0009 7.2 12.0009C8.47304 12.0009 9.69394 11.4952 10.5941 10.595C11.4943 9.69486 12 8.47396 12 7.20092C12 5.92788 11.4943 4.70698 10.5941 3.80681C9.69394 2.90663 8.47304 2.40092 7.2 2.40092ZM1.36154e-07 7.20092C-0.000144468 6.06776 0.267171 4.95057 0.780206 3.94021C1.29324 2.92985 2.03751 2.05484 2.95247 1.38635C3.86744 0.717863 4.92727 0.274774 6.04577 0.0931192C7.16427 -0.0885358 8.30986 -0.00362699 9.38936 0.34094C10.4689 0.685507 11.4518 1.28 12.2582 2.07607C13.0646 2.87215 13.6718 3.84732 14.0302 4.92228C14.3887 5.99724 14.4884 7.14163 14.3212 8.26238C14.154 9.38313 13.7246 10.4486 13.068 11.3721L18.8484 17.1525C19.067 17.3788 19.1879 17.682 19.1852 17.9966C19.1825 18.3112 19.0563 18.6122 18.8338 18.8347C18.6113 19.0572 18.3103 19.1834 17.9957 19.1861C17.681 19.1889 17.3779 19.0679 17.1516 18.8493L11.3724 13.0701C10.2952 13.8361 9.02802 14.2907 7.70961 14.3843C6.3912 14.4778 5.07249 14.2066 3.89796 13.6005C2.72343 12.9943 1.73842 12.0766 1.05087 10.9477C0.363312 9.81893 -0.000256861 8.52264 1.36154e-07 7.20092Z" fill="white"/>
        </svg>
        <svg  id="chevron-right" width="24" height="24" viewBox="0 0 24 24" fill="none" xmlns="http://www.w3.org/2000/svg">
            <path fill-rule="evenodd" clip-rule="evenodd" d="M8.29289 4.29289C8.68342 3.90237 9.31658 3.90237 9.70711 4.29289L16.7071 11.2929C17.0976 11.6834 17.0976 12.3166 16.7071 12.7071L9.70711 19.7071C9.31658 20.0976 8.68342 20.0976 8.29289 19.7071C7.90237 19.3166 7.90237 18.6834 8.29289 18.2929L14.5858 12L8.29289 5.70711C7.90237 5.31658 7.90237 4.68342 8.29289 4.29289Z" fill="#64748B"/>
        </svg>
        <svg id="chevron-left" width="24" height="24" viewBox="0 0 24 24" fill="none" xmlns="http://www.w3.org/2000/svg">
            <path fill-rule="evenodd" clip-rule="evenodd" d="M15.7071 4.29289C16.0976 4.68342 16.0976 5.31658 15.7071 5.70711L9.41421 12L15.7071 18.2929C16.0976 18.6834 16.0976 19.3166 15.7071 19.7071C15.3166 20.0976 14.6834 20.0976 14.2929 19.7071L7.29289 12.7071C6.90237 12.3166 6.90237 11.6834 7.29289 11.2929L14.2929 4.29289C14.6834 3.90237 15.3166 3.90237 15.7071 4.29289Z" fill="#64748B"/>
        </svg>

    </defs>
</svg>
